<svg xmlns="http://www.w3.org/2000/svg" xmlns:xlink="http://www.w3.org/1999/xlink" width="500" zoomAndPan="magnify" viewBox="0 0 375 374.999991" height="500" preserveAspectRatio="xMidYMid meet" version="1.0"><defs><clipPath id="dbc70d9e45"><path d="M 106.425781 61.160156 L 253.425781 61.160156 L 253.425781 144.410156 L 106.425781 144.410156 Z M 106.425781 61.160156 " clip-rule="nonzero"/></clipPath><clipPath id="1e638458e4"><path d="M 83 144.078125 L 229.933594 144.078125 L 229.933594 230.707031 L 83 230.707031 Z M 83 144.078125 " clip-rule="nonzero"/></clipPath><clipPath id="34c2b4b1b4"><path d="M 88 63 L 223 63 L 223 208 L 88 208 Z M 88 63 " clip-rule="nonzero"/></clipPath><clipPath id="f56f3d20fb"><path d="M 175.195312 207.515625 L 83.976562 116.296875 L 139.132812 61.144531 L 230.347656 152.359375 Z M 175.195312 207.515625 " clip-rule="nonzero"/></clipPath><clipPath id="f8963629bf"><path d="M 175.195312 207.515625 L 83.976562 116.296875 L 139.132812 61.144531 L 230.347656 152.359375 Z M 175.195312 207.515625 " clip-rule="nonzero"/></clipPath></defs><g clip-path="url(#dbc70d9e45)"><path fill="#004aad" d="M 177.214844 122.089844 L 165.5 133.820312 L 232.554688 200.960938 L 179.578125 253.910156 L 122.550781 196.804688 L 131.628906 187.714844 L 179.578125 235.730469 L 214.175781 201.085938 L 203.4375 190.332031 L 182.773438 211.023438 L 182.632812 210.886719 L 182.507812 211.011719 L 106.515625 134.917969 L 115.59375 125.832031 L 182.648438 192.972656 L 194.363281 181.246094 L 127.304688 114.105469 L 180.285156 61.160156 L 237.3125 118.261719 L 228.238281 127.351562 L 180.285156 79.332031 L 145.6875 113.976562 L 156.425781 124.730469 L 177.09375 104.039062 L 177.230469 104.175781 L 177.355469 104.050781 L 253.351562 180.144531 L 244.273438 189.230469 Z M 177.214844 122.089844 " fill-opacity="1" fill-rule="nonzero"/></g><g clip-path="url(#1e638458e4)"><path fill="#004aad" d="M 153.722656 98.886719 L 142.007812 110.617188 L 209.0625 177.757812 L 156.085938 230.707031 L 99.058594 173.601562 L 108.136719 164.511719 L 156.085938 212.527344 L 190.683594 177.882812 L 179.945312 167.128906 L 159.28125 187.820312 L 159.140625 187.683594 L 159.015625 187.808594 L 83.023438 111.714844 L 92.101562 102.628906 L 159.15625 169.769531 L 170.871094 158.042969 L 103.8125 90.902344 L 156.792969 37.957031 L 213.820312 95.058594 L 204.746094 104.148438 L 156.792969 56.128906 L 122.195312 90.773438 L 132.933594 101.527344 L 153.601562 80.835938 L 153.738281 80.972656 L 153.863281 80.847656 L 229.859375 156.941406 L 220.78125 166.027344 Z M 153.722656 98.886719 " fill-opacity="1" fill-rule="nonzero"/></g><g clip-path="url(#34c2b4b1b4)"><g clip-path="url(#f56f3d20fb)"><g clip-path="url(#f8963629bf)"><path fill="#004aad" d="M 174.8125 207.085938 C 174.925781 207.199219 175.082031 207.265625 175.214844 207.265625 C 175.351562 207.265625 175.507812 207.199219 175.621094 207.085938 L 219.855469 162.851562 C 219.949219 162.761719 220.015625 162.648438 220.015625 162.511719 L 222.75 145.125 C 222.773438 144.921875 222.730469 144.742188 222.59375 144.605469 L 203.15625 125.167969 C 203 125.011719 202.75 124.941406 202.527344 125.03125 L 194.292969 128.054688 L 150.042969 83.804688 L 152.207031 78.089844 C 152.296875 77.867188 152.230469 77.617188 152.074219 77.460938 L 137.847656 63.234375 C 137.734375 63.125 137.578125 63.054688 137.441406 63.054688 C 137.308594 63.054688 137.148438 63.125 137.039062 63.238281 L 88.613281 111.660156 C 88.390625 111.882812 88.367188 112.265625 88.613281 112.515625 L 126.007812 149.910156 L 124.203125 156.074219 C 124.136719 156.277344 124.179688 156.5 124.339844 156.65625 L 174.789062 207.109375 Z M 175.238281 205.804688 L 125.464844 156.027344 L 127.269531 149.863281 C 127.335938 149.660156 127.269531 149.414062 127.132812 149.277344 L 89.875 112.019531 L 137.464844 64.429688 L 151.015625 77.980469 L 148.851562 83.695312 C 148.761719 83.917969 148.828125 84.167969 148.984375 84.324219 L 193.773438 129.113281 C 193.929688 129.269531 194.179688 129.335938 194.402344 129.246094 L 202.636719 126.226562 L 221.605469 145.191406 L 218.9375 162.109375 L 178.1875 202.855469 Z M 170.949219 199.441406 C 171.105469 199.601562 171.332031 199.644531 171.511719 199.597656 C 171.714844 199.53125 171.871094 199.375 171.941406 199.171875 C 172.007812 198.96875 171.917969 198.746094 171.78125 198.609375 L 158.703125 185.53125 C 158.546875 185.375 158.320312 185.328125 158.140625 185.375 C 157.9375 185.441406 157.78125 185.597656 157.714844 185.800781 C 157.644531 186.003906 157.734375 186.230469 157.871094 186.363281 Z M 127.847656 155.710938 C 128.003906 155.867188 128.207031 155.890625 128.433594 155.84375 C 128.632812 155.777344 128.792969 155.621094 128.816406 155.417969 L 130.800781 147.769531 C 130.867188 147.566406 130.800781 147.363281 130.644531 147.207031 L 94.84375 111.40625 L 105.335938 100.917969 C 105.492188 100.757812 105.5625 100.554688 105.492188 100.355469 C 105.425781 100.152344 105.269531 99.992188 105.066406 99.925781 C 104.863281 99.859375 104.640625 99.949219 104.503906 100.085938 L 93.609375 110.980469 C 93.382812 111.207031 93.359375 111.589844 93.609375 111.835938 L 129.585938 147.8125 L 127.667969 155.125 C 127.601562 155.328125 127.691406 155.554688 127.847656 155.710938 Z M 175.242188 202.476562 C 175.355469 202.585938 175.511719 202.65625 175.671875 202.632812 C 175.828125 202.609375 175.960938 202.566406 176.074219 202.453125 L 211.082031 167.445312 C 211.238281 167.289062 211.304688 167.085938 211.238281 166.882812 C 211.171875 166.679688 211.015625 166.523438 210.8125 166.457031 C 210.609375 166.390625 210.386719 166.480469 210.25 166.613281 L 175.242188 201.621094 C 175.132812 201.734375 175.0625 201.890625 175.0625 202.027344 C 175.0625 202.207031 175.128906 202.363281 175.242188 202.476562 Z M 174.300781 198.652344 C 174.527344 198.878906 174.910156 198.898438 175.15625 198.652344 L 212.210938 161.597656 C 212.367188 161.4375 212.4375 161.238281 212.367188 161.035156 C 212.300781 160.832031 212.144531 160.675781 211.941406 160.609375 C 211.738281 160.539062 211.515625 160.628906 211.378906 160.765625 L 174.753906 197.390625 L 132.863281 155.503906 L 135.164062 147.539062 C 135.230469 147.335938 135.1875 147.113281 135.03125 146.953125 L 99.1875 111.109375 L 130.5 79.796875 C 130.726562 79.570312 130.726562 79.210938 130.480469 78.964844 C 130.230469 78.71875 129.894531 78.738281 129.648438 78.941406 L 97.882812 110.707031 C 97.882812 110.707031 97.859375 110.730469 97.859375 110.730469 C 97.859375 110.730469 97.835938 110.75 97.835938 110.75 C 97.65625 110.976562 97.65625 111.335938 97.902344 111.539062 C 97.925781 111.5625 97.949219 111.582031 97.949219 111.582031 L 133.90625 147.539062 L 131.605469 155.503906 C 131.535156 155.707031 131.582031 155.933594 131.738281 156.089844 Z M 190.613281 140.992188 C 192.050781 142.429688 194.390625 142.425781 195.832031 140.984375 C 196.261719 140.558594 196.53125 140.0625 196.734375 139.546875 C 196.777344 139.546875 196.800781 139.523438 196.824219 139.5 L 203.347656 136.480469 L 214.605469 147.738281 L 213.203125 158.808594 C 213.15625 158.988281 213.246094 159.167969 213.359375 159.277344 C 213.515625 159.4375 213.765625 159.503906 213.96875 159.4375 C 214.191406 159.347656 214.328125 159.164062 214.371094 158.941406 L 215.777344 147.605469 C 215.800781 147.402344 215.730469 147.242188 215.597656 147.109375 L 203.820312 135.332031 C 203.640625 135.152344 203.371094 135.109375 203.167969 135.222656 L 196.871094 138.152344 C 196.824219 137.296875 196.464844 136.441406 195.792969 135.769531 C 194.351562 134.328125 192.015625 134.332031 190.574219 135.773438 C 190.550781 135.792969 190.527344 135.816406 190.507812 135.839844 L 164.527344 109.863281 C 164.371094 109.703125 164.167969 109.636719 163.964844 109.703125 C 163.761719 109.773438 163.605469 109.929688 163.539062 110.132812 C 163.46875 110.335938 163.558594 110.558594 163.695312 110.695312 L 189.851562 136.851562 C 189.246094 138.179688 189.492188 139.867188 190.613281 140.992188 Z M 191.46875 140.136719 C 190.480469 139.144531 190.480469 137.570312 191.472656 136.582031 C 192.464844 135.589844 194.039062 135.589844 195.027344 136.578125 C 196.015625 137.566406 196.015625 139.140625 195.023438 140.132812 C 194.011719 141.101562 192.4375 141.101562 191.46875 140.136719 Z M 161.558594 108.378906 C 161.71875 108.535156 161.941406 108.582031 162.121094 108.535156 C 162.324219 108.46875 162.480469 108.3125 162.550781 108.109375 C 162.617188 107.90625 162.527344 107.679688 162.394531 107.546875 L 153.449219 98.601562 C 153.292969 98.445312 153.066406 98.398438 152.886719 98.445312 C 152.683594 98.511719 152.527344 98.671875 152.457031 98.875 C 152.390625 99.074219 152.480469 99.300781 152.617188 99.433594 Z M 147.199219 94.019531 C 147.355469 94.175781 147.582031 94.222656 147.761719 94.175781 C 147.964844 94.109375 148.121094 93.949219 148.191406 93.75 C 148.257812 93.546875 148.167969 93.320312 148.03125 93.1875 L 144.480469 89.636719 C 144.324219 89.476562 144.101562 89.433594 143.921875 89.480469 C 143.71875 89.546875 143.558594 89.703125 143.492188 89.90625 C 143.425781 90.109375 143.515625 90.332031 143.648438 90.46875 Z M 141.289062 87.523438 C 141.425781 87.660156 141.628906 87.726562 141.828125 87.703125 C 142.03125 87.679688 142.191406 87.523438 142.28125 87.34375 L 144.738281 81.785156 C 144.828125 81.5625 144.78125 81.289062 144.625 81.132812 L 136.332031 72.839844 C 136.105469 72.617188 135.726562 72.59375 135.476562 72.84375 L 132.28125 76.039062 C 132.125 76.195312 132.054688 76.398438 132.101562 76.625 C 132.144531 76.847656 132.300781 77.003906 132.527344 77.050781 C 132.753906 77.09375 132.953125 77.027344 133.113281 76.871094 L 135.882812 74.101562 L 143.453125 81.675781 L 141.179688 86.871094 C 141.066406 87.074219 141.109375 87.34375 141.289062 87.523438 Z M 141.289062 87.523438 " fill-opacity="1" fill-rule="nonzero"/></g></g></g></svg>